PathFileType	4	(X/Y/Z)	C:/Users/opensim2020/Desktop/walking_exp_matlab/subject01_walking04_straight_01.trc	
DataRate	CameraRate	NumFrames	NumMarkers	Units	OrigDataRate	OrigDataStartFrame	OrigNumFrames	
100.00	100.00	7	43	mm	100.00	866	216	
Frame#	Time	LFHD			RFHD			LBHD			RBHD			C7			T10			CLAV			STRN			RBAK			LSHO			LUPA			LELB			LFRM			LWRA			LWRB			LFIN			RSHO			RUPA			RELB			RFRM			RWRA			RWRB			RFIN			LASI			RASI			LPSI			RPSI			LTHI			LKNE			LTIB			LANK			LHEE			LTOE			RTHI			RKNE			RTIB			RANK			RHEE			RTOE			*39			*40			*41			*42			
		X1	Y1	Z1	X2	Y2	Z2	X3	Y3	Z3	X4	Y4	Z4	X5	Y5	Z5	X6	Y6	Z6	X7	Y7	Z7	X8	Y8	Z8	X9	Y9	Z9	X10	Y10	Z10	X11	Y11	Z11	X12	Y12	Z12	X13	Y13	Z13	X14	Y14	Z14	X15	Y15	Z15	X16	Y16	Z16	X17	Y17	Z17	X18	Y18	Z18	X19	Y19	Z19	X20	Y20	Z20	X21	Y21	Z21	X22	Y22	Z22	X23	Y23	Z23	X24	Y24	Z24	X25	Y25	Z25	X26	Y26	Z26	X27	Y27	Z27	X28	Y28	Z28	X29	Y29	Z29	X30	Y30	Z30	X31	Y31	Z31	X32	Y32	Z32	X33	Y33	Z33	X34	Y34	Z34	X35	Y35	Z35	X36	Y36	Z36	X37	Y37	Z37	X38	Y38	Z38	X39	Y39	Z39	X40	Y40	Z40	X41	Y41	Z41	X42	Y42	Z42	X43	Y43	Z43	

55	0.540	-1072.48145	-497.11197	1675.34204	-958.79932	-484.91690	1681.31702	-1066.14136	-606.22357	1613.24683	-945.50067	-596.37592	1617.88379	-1022.70905	-624.97089	1429.53918	-1010.20502	-654.15894	1135.60376	-1023.76691	-478.97644	1365.53613	-1030.53809	-432.69711	1211.52783	-941.14423	-672.35132	1233.88281	-1183.59460	-544.45654	1389.34119	-1271.38330	-568.74152	1207.76306	-1280.71472	-574.59033	1054.91919	-1309.08044	-510.96967	958.75763	-1297.92432	-402.41397	871.41364	-1318.10767	-454.90204	850.20306	-1331.98535	-389.90927	798.08728	-870.14594	-539.62732	1391.98572	-769.70117	-604.59991	1195.28357	-765.38080	-608.45538	1069.87695	-732.40161	-584.18152	951.98553	-748.36432	-504.00797	834.39600	-711.10315	-549.99939	835.73376	-711.72168	-513.34668	758.05750	-1127.71606	-485.11096	927.82880	-912.95044	-469.71112	932.64648	-1061.80518	-668.00360	942.80383	-915.91614	-657.22839	948.76038	-1200.72937	-525.90417	595.63873	-1199.59961	-546.04181	463.20917	-1208.65259	-697.04547	355.26276	-1159.86157	-861.19025	210.60207	-1100.32813	-897.49280	227.88104	-1159.61108	-828.62445	60.95737	-858.51453	-487.38904	601.30359	-891.47595	-455.01730	447.63937	-889.74420	-493.54593	273.74088	-947.72498	-502.94150	72.59794	-1000.26007	-548.89478	34.78858	-943.86115	-361.22382	34.81104	-980.53552	-502.10489	1713.31714	-3102.05127	1973.16479	1024.06458	-3138.41602	2013.09338	1022.21863			 
56	0.550	-1071.11694	-487.52240	1676.21191	-957.21143	-475.46158	1682.28467	-1064.53223	-596.62463	1613.88794	-943.88586	-586.65771	1618.47168	-1020.96857	-615.36450	1430.50171	-1008.52869	-645.17474	1136.53809	-1022.62567	-469.42770	1365.96436	-1029.25659	-423.62335	1211.85059	-939.15106	-663.08411	1235.07922	-1182.17334	-535.40143	1390.02258	-1269.21472	-561.11719	1208.17993	-1278.33984	-567.71405	1055.54749	-1306.47314	-506.01465	958.05798	-1295.55408	-399.73911	868.34210	-1315.68213	-452.73074	848.30316	-1329.36951	-389.00662	794.59576	-868.75848	-529.36816	1392.49109	-767.19659	-593.19299	1195.92383	-762.53119	-596.92725	1070.36621	-729.79028	-571.34906	952.67914	-746.75555	-490.67880	835.58325	-709.03339	-535.70477	836.82562	-709.82306	-498.04602	759.58838	-1126.43872	-476.10757	928.53149	-911.29510	-461.34033	933.01831	-1061.38745	-659.16290	942.76758	-915.52838	-649.16675	948.81488	-1199.57996	-509.60294	596.65039	-1198.41553	-526.66730	464.06015	-1207.12390	-677.51611	356.62277	-1158.26978	-843.75159	214.28516	-1098.60767	-880.27899	230.77090	-1159.84912	-810.69757	65.03946	-858.05109	-482.53159	601.45148	-890.81696	-452.27335	447.33771	-889.25201	-492.29468	273.88452	-947.71619	-502.76459	72.59925	-1000.27618	-548.92841	34.86484	-943.82617	-361.19165	34.68696	-978.98608	-492.57007	1713.92749	-3102.59473	1972.95679	1023.92303	-3139.98267	2012.68213	1022.04340			 
57	0.560	-1069.65515	-477.97174	1676.90454	-955.78992	-465.65625	1682.76379	-1063.06470	-587.09381	1614.50635	-942.44110	-576.98407	1619.04980	-1019.16168	-605.66083	1431.38379	-1006.91266	-636.31763	1137.61865	-1021.41113	-459.99002	1366.42041	-1028.06226	-414.68689	1212.16699	-937.39526	-653.89746	1236.22717	-1180.81238	-526.41718	1390.74841	-1267.10132	-553.62274	1208.65442	-1275.96753	-560.94446	1056.23438	-1304.17126	-501.62384	957.68872	-1293.16992	-397.28629	865.34021	-1313.14783	-450.78162	846.56122	-1326.73792	-388.37433	791.24304	-867.30933	-519.17023	1393.28613	-764.77301	-581.71075	1196.58533	-759.65955	-585.27136	1070.94043	-727.21252	-558.29504	953.46881	-745.09412	-476.45990	837.42358	-706.60516	-520.75018	838.04254	-708.01776	-482.80124	761.22675	-1125.30310	-467.08902	929.40717	-909.94244	-454.01599	933.20691	-1061.05334	-650.38177	942.96838	-916.08600	-639.31482	947.87714	-1198.68250	-493.50912	598.17670	-1197.16016	-507.33536	465.49466	-1205.74927	-658.36029	358.37439	-1156.74841	-825.49200	216.99529	-1097.13989	-862.69849	232.95248	-1159.16577	-791.30640	68.25433	-857.62836	-478.08633	601.52313	-890.26300	-449.86115	446.99066	-888.86420	-490.93469	273.89343	-947.72119	-502.93030	72.75179	-1000.32239	-549.01544	34.99519	-943.76660	-361.15955	34.60306	-977.66199	-483.05035	1714.45630	-3102.09570	1973.14771	1024.00781	-3140.30444	2012.63135	1022.13049			 
58	0.570	-1068.33057	-468.45496	1677.56140	-954.64825	-456.16196	1683.32043	-1061.53284	-577.45886	1615.03662	-940.97247	-567.28003	1619.62805	-1017.49554	-596.27472	1432.31799	-1005.51422	-627.50244	1138.61121	-1020.21552	-450.76123	1366.85071	-1026.92200	-405.86981	1212.49060	-935.73553	-644.76996	1237.37720	-1179.44836	-517.47858	1391.44946	-1265.15430	-546.18024	1209.19165	-1273.52246	-554.28394	1056.99426	-1301.61414	-496.91867	957.35156	-1290.80835	-395.01828	862.51160	-1310.78723	-448.92273	844.98102	-1324.08093	-387.94922	788.06592	-866.13782	-509.24295	1393.84460	-762.46039	-570.30566	1197.19800	-756.91321	-573.50793	1071.59497	-724.74799	-545.21216	954.34607	-743.23212	-462.58469	839.06793	-704.33331	-506.32361	839.34857	-705.86304	-467.62747	763.00360	-1124.12378	-458.10281	930.31055	-908.11682	-445.30612	933.88708	-1060.79431	-641.60382	943.38751	-915.79352	-631.43146	948.19788	-1197.77368	-477.62585	599.87506	-1195.90198	-488.40228	467.21170	-1204.21680	-639.22742	360.04120	-1155.31531	-806.59296	218.52484	-1095.97839	-844.83972	234.24092	-1157.86072	-770.59772	70.81830	-857.14758	-473.68335	601.70660	-889.66461	-446.89752	446.69830	-888.65918	-489.40469	273.77750	-947.56207	-502.51453	72.69497	-1000.32446	-549.16840	35.19482	-943.70465	-361.16995	34.49258	-976.39771	-473.46567	1715.14673	-3102.19336	1973.03027	1024.05676	-3140.31567	2012.60938	1021.95520			 
59	0.580	-1067.10278	-459.05399	1678.17786	-953.43433	-446.91064	1684.20520	-1060.21570	-567.93195	1615.52686	-939.54498	-557.59943	1620.19031	-1015.93896	-586.94122	1433.28845	-1004.32727	-618.78778	1139.57874	-1018.69055	-441.66318	1367.30591	-1025.84631	-397.05386	1212.78259	-934.19641	-635.75177	1238.44604	-1178.11902	-508.59616	1392.19849	-1263.35620	-538.74133	1209.81885	-1271.05237	-547.75555	1057.81238	-1299.24170	-492.71719	957.03802	-1288.37756	-392.95255	859.77747	-1308.24023	-447.29849	843.50525	-1321.47766	-387.65945	785.05591	-864.96375	-499.38641	1394.42798	-760.37415	-558.65363	1197.85779	-754.26880	-561.83655	1072.35083	-722.35553	-532.09418	955.33917	-741.56958	-448.68066	840.78619	-702.05853	-491.62979	840.70508	-703.67261	-452.41144	764.86597	-1123.01257	-449.16119	931.29449	-906.49017	-437.18188	934.52771	-1060.62793	-632.86322	943.98962	-915.53497	-624.32733	949.17389	-1196.71582	-461.96979	601.67450	-1194.41504	-469.69196	469.03430	-1202.62610	-620.26166	361.61697	-1153.79688	-787.11664	219.19878	-1094.84167	-826.64972	234.47350	-1155.94287	-747.90082	72.42460	-856.66705	-468.87543	601.86945	-889.24493	-444.39294	446.37155	-888.25543	-487.80151	273.99423	-947.48376	-502.43857	72.82859	-1000.25183	-549.14313	35.21505	-943.64423	-361.15277	34.36850	-975.24268	-463.92032	1715.80225	-3101.86255	1973.14355	1023.58130	-3140.42871	2012.56543	1021.92480			 
60	0.590	-1065.83020	-449.70782	1678.63721	-952.16345	-436.93246	1684.84045	-1058.97485	-558.41370	1616.00854	-938.25464	-547.91602	1620.79883	-1014.49817	-577.57062	1434.17651	-1003.23236	-610.13708	1140.54504	-1017.97577	-432.45181	1367.84351	-1024.87793	-388.27167	1213.18567	-932.79053	-626.77936	1239.53406	-1176.89270	-499.76321	1393.03027	-1261.66504	-531.23871	1210.51099	-1268.53259	-541.31287	1058.64819	-1296.79016	-488.43268	956.87933	-1285.95227	-390.96622	857.16620	-1305.79004	-445.71756	842.25360	-1318.93628	-387.52731	782.26538	-863.80634	-489.98251	1394.95435	-758.35571	-547.19354	1198.51245	-751.78442	-550.08752	1073.07788	-720.08215	-518.92212	956.39935	-739.83240	-434.68964	842.67035	-700.02606	-477.58826	842.37689	-702.07520	-437.04391	766.73944	-1121.91162	-440.26788	932.35242	-904.49017	-428.76984	935.15094	-1060.64917	-624.13312	944.79071	-915.53900	-616.09033	949.47113	-1195.52539	-446.55768	603.52612	-1193.34558	-451.75131	470.83337	-1200.92590	-601.32587	362.96072	-1152.14844	-767.37085	219.05420	-1093.48376	-808.06873	233.42648	-1154.65271	-723.79755	74.35200	-856.25024	-464.43250	601.98785	-888.84784	-441.80252	446.17087	-888.07312	-486.38550	274.06024	-947.40961	-502.45404	72.98646	-1000.26904	-549.01758	35.40375	-943.14532	-361.23907	34.63161	-974.07764	-454.39581	1716.58789	-3101.92798	1973.16687	1023.69348	-3140.35571	2012.57178	1022.04388			 
61	0.600	-1064.86157	-440.36307	1679.15906	-951.25482	-427.56433	1685.34583	-1057.78064	-549.12476	1616.39185	-937.11414	-538.36688	1621.25232	-1013.08264	-568.30731	1435.01624	-1002.22516	-601.54486	1141.46399	-1016.62592	-423.40369	1368.36462	-1023.81464	-379.55865	1213.56592	-931.47205	-617.71808	1240.47815	-1175.74463	-490.99948	1393.87512	-1260.04919	-523.75079	1211.26428	-1266.03943	-535.01416	1059.57104	-1294.36462	-484.29398	956.76550	-1283.48682	-389.15942	854.75238	-1303.56042	-444.17346	841.26788	-1316.38110	-387.51117	779.72894	-862.69971	-480.55402	1395.64270	-756.49231	-535.87897	1199.20459	-749.49481	-538.37256	1073.79089	-717.97485	-505.88873	957.50195	-738.06873	-420.65308	844.52625	-697.88635	-463.10764	843.93451	-699.94611	-422.01169	768.76184	-1120.78503	-431.37265	933.48004	-903.08826	-421.02591	935.65161	-1060.67822	-615.31213	945.78418	-915.68158	-607.98450	950.04767	-1194.33264	-431.61407	605.35828	-1191.81995	-434.03381	472.69284	-1199.25269	-582.57379	364.04071	-1150.20776	-747.18982	217.99335	-1091.83508	-789.32617	230.86215	-1152.64807	-697.86108	75.43555	-855.90869	-459.94101	602.05042	-888.49835	-439.39536	445.92197	-887.80450	-484.78528	274.11752	-947.33704	-502.21902	73.05087	-1000.07654	-549.16473	35.83895	-943.03558	-361.19348	34.62218	-972.97705	-444.99399	1717.21411	-3101.87427	1973.12927	1023.55573	-3140.57520	2012.52625	1021.91406			 
